<svg xmlns="http://www.w3.org/2000/svg" width="900" height="1300" viewBox="0 0 900 1300">
  <defs>
    <linearGradient id="bg" x1="0" y1="0" x2="0" y2="1">
      <stop offset="0%" stop-color="#261525"/>
      <stop offset="54%" stop-color="#58324d"/>
      <stop offset="100%" stop-color="#1c1020"/>
    </linearGradient>
    <linearGradient id="sunset" x1="0" y1="0" x2="1" y2="0">
      <stop offset="0%" stop-color="#f9c0b0"/>
      <stop offset="100%" stop-color="#ffd88e"/>
    </linearGradient>
  </defs>
  <rect width="900" height="1300" fill="url(#bg)"/>
  <rect x="138" y="248" width="624" height="366" rx="18" fill="url(#sunset)" opacity="0.92"/>
  <rect x="138" y="248" width="624" height="366" rx="18" fill="#ffffff" opacity="0.08"/>
  <path d="M188 616 H716" stroke="#1a1117" stroke-width="8"/>
  <rect x="196" y="646" width="508" height="246" rx="16" fill="#221720" opacity="0.76"/>
  <rect x="314" y="676" width="272" height="18" rx="9" fill="#6b5360"/>
  <rect x="270" y="734" width="360" height="22" rx="11" fill="#7c6270"/>
  <rect x="330" y="800" width="240" height="18" rx="9" fill="#6b5360"/>
  <rect x="236" y="902" width="428" height="160" rx="20" fill="#f2eadf"/>
  <path d="M236 902 L450 1012 L664 902" fill="#e5d8c9"/>
  <circle cx="450" cy="972" r="32" fill="#bd5762"/>
  <rect x="584" y="346" width="118" height="72" rx="12" fill="#f7f2ea" transform="rotate(10 643 382)"/>
  <path d="M598 360 C620 372 636 384 642 412" fill="none" stroke="#bd5762" stroke-width="6"/>
  <circle cx="188" cy="202" r="18" fill="#f8d1cc" opacity="0.75"/>
  <circle cx="240" cy="150" r="10" fill="#f8d1cc" opacity="0.5"/>
  <circle cx="722" cy="186" r="22" fill="#ffd28e" opacity="0.72"/>
  <text x="90" y="144" fill="#fff3f4" font-size="74" font-family="Georgia, serif" letter-spacing="6">CONFESSION</text>
  <text x="92" y="200" fill="#f3d1d1" font-size="24" font-family="Arial, sans-serif" letter-spacing="5">SOME WORDS MISS THEIR MOMENT. SOME NEVER STOP WAITING.</text>
  <text x="92" y="1146" fill="#ffd48f" font-size="32" font-family="Arial, sans-serif" letter-spacing="4">EMOTIONAL STORY</text>
  <text x="92" y="1192" fill="#f6ecec" font-size="22" font-family="Arial, sans-serif">A letter, a classroom, and a truth delayed for far too long.</text>
</svg>
