<svg xmlns="http://www.w3.org/2000/svg" viewBox="0 0 720 960">
  <defs>
    <linearGradient id="bg" x1="0" y1="0" x2="1" y2="1">
      <stop offset="0%" stop-color="#18070a"/>
      <stop offset="55%" stop-color="#4b0f18"/>
      <stop offset="100%" stop-color="#120406"/>
    </linearGradient>
    <linearGradient id="glass" x1="0" y1="0" x2="0" y2="1">
      <stop offset="0%" stop-color="#ffd7a1"/>
      <stop offset="50%" stop-color="#ad1326"/>
      <stop offset="100%" stop-color="#2f0711"/>
    </linearGradient>
  </defs>
  <rect width="720" height="960" fill="url(#bg)"/>
  <g opacity="0.15" fill="#ffcf9c">
    <circle cx="150" cy="132" r="2"/><circle cx="196" cy="218" r="2"/><circle cx="604" cy="160" r="2"/>
    <circle cx="516" cy="244" r="2"/><circle cx="624" cy="328" r="2"/><circle cx="98" cy="352" r="2"/>
  </g>
  <path d="M130 640L270 240h180l140 400z" fill="#14090b" stroke="#ffb68c" stroke-opacity="0.15" stroke-width="4"/>
  <path d="M300 250c0-74 60-134 134-134s134 60 134 134v216H300z" fill="#20090f"/>
  <circle cx="434" cy="262" r="86" fill="url(#glass)" opacity="0.95"/>
  <path d="M434 198v128M370 262h128" stroke="#fff1d8" stroke-width="12" stroke-linecap="round" opacity="0.78"/>
  <path d="M250 640V470c0-92 74-166 166-166s166 74 166 166v170" fill="none" stroke="#ffc79f" stroke-opacity="0.24" stroke-width="18"/>
  <rect x="328" y="450" width="176" height="190" rx="88" fill="#120507" stroke="#ffcab0" stroke-opacity="0.14" stroke-width="4"/>
  <path d="M0 746c180-52 294-56 430-20 82 22 162 30 290 12v222H0z" fill="#090304"/>
  <path d="M0 760c110 10 192 2 280-24 78-24 164-44 440-18" fill="none" stroke="#d3112f" stroke-width="8" opacity="0.72"/>
  <text x="54" y="94" fill="#f7b18b" font-size="26" letter-spacing="5" font-family="Microsoft YaHei, sans-serif">GOTHIC HORROR</text>
  <text x="54" y="810" fill="#fff0ea" font-size="68" font-weight="700" font-family="Microsoft YaHei, sans-serif">血色修道院</text>
  <text x="56" y="864" fill="#f0b7a6" font-size="28" letter-spacing="3" font-family="Arial, sans-serif">CRIMSON ABBEY</text>
  <text x="56" y="906" fill="#f8d7cd" opacity="0.88" font-size="22" font-family="Microsoft YaHei, sans-serif">迟到多年的忏悔信，把所有人重新带回封闭的院墙之中。</text>
</svg>
