<svg xmlns="http://www.w3.org/2000/svg" width="900" height="1300" viewBox="0 0 900 1300">
  <defs>
    <linearGradient id="bg" x1="0" y1="0" x2="0" y2="1">
      <stop offset="0%" stop-color="#090d12"/>
      <stop offset="50%" stop-color="#242b35"/>
      <stop offset="100%" stop-color="#0d1013"/>
    </linearGradient>
    <linearGradient id="steel" x1="0" y1="0" x2="1" y2="1">
      <stop offset="0%" stop-color="#d2d8df"/>
      <stop offset="48%" stop-color="#748291"/>
      <stop offset="100%" stop-color="#313845"/>
    </linearGradient>
  </defs>
  <rect width="900" height="1300" fill="url(#bg)"/>
  <path d="M318 226 H582 L622 358 L562 586 H338 L278 358 Z" fill="url(#steel)"/>
  <path d="M360 318 H540 L516 470 H384 Z" fill="#11161c"/>
  <rect x="392" y="510" width="116" height="240" rx="58" fill="url(#steel)"/>
  <path d="M450 744 L450 1010" stroke="#d7bd7b" stroke-width="18" stroke-linecap="round"/>
  <path d="M374 864 H526" stroke="#d7bd7b" stroke-width="18" stroke-linecap="round"/>
  <path d="M118 1002 L226 850 L334 1002 Z" fill="#171b21"/>
  <path d="M286 1002 L450 770 L614 1002 Z" fill="#20252d"/>
  <path d="M566 1002 L674 850 L782 1002 Z" fill="#171b21"/>
  <path d="M184 246 L286 192 L286 354 Z" fill="#7d1f2d"/>
  <text x="90" y="144" fill="#f4f6f8" font-size="74" font-family="Georgia, serif" letter-spacing="6">DARK KNIGHT</text>
  <text x="92" y="200" fill="#c8d0d8" font-size="24" font-family="Arial, sans-serif" letter-spacing="5">THE BANNER IS TORN. THE OATHS ARE WORSE.</text>
  <text x="92" y="1146" fill="#e6c67e" font-size="32" font-family="Arial, sans-serif" letter-spacing="4">STRATEGY AND FACTIONS</text>
  <text x="92" y="1192" fill="#eceef1" font-size="22" font-family="Arial, sans-serif">Steel remembers every promise the kingdom has already broken.</text>
</svg>
