<svg xmlns="http://www.w3.org/2000/svg" viewBox="0 0 720 960">
  <defs>
    <linearGradient id="bg" x1="0" y1="0" x2="1" y2="1">
      <stop offset="0%" stop-color="#12333d"/>
      <stop offset="55%" stop-color="#4f6b67"/>
      <stop offset="100%" stop-color="#8e6f56"/>
    </linearGradient>
  </defs>
  <rect width="720" height="960" fill="url(#bg)"/>
  <rect x="122" y="156" width="476" height="596" rx="22" fill="#f0dfc1" opacity="0.18"/>
  <rect x="168" y="206" width="384" height="408" rx="10" fill="#f5ead7"/>
  <rect x="200" y="238" width="320" height="344" rx="6" fill="#d7c3a3"/>
  <path d="M228 550c74-120 128-174 172-174 44 0 90 44 138 122" fill="none" stroke="#81674d" stroke-width="14" stroke-linecap="round"/>
  <circle cx="400" cy="322" r="116" fill="none" stroke="#ffffff" stroke-opacity="0.88" stroke-width="18"/>
  <circle cx="400" cy="322" r="8" fill="#ffffff"/>
  <path d="M400 322l0-62M400 322l52 34" stroke="#ffffff" stroke-width="12" stroke-linecap="round"/>
  <path d="M208 688c78 34 228 42 304 0" fill="none" stroke="#f3dcc3" stroke-opacity="0.82" stroke-width="4"/>
  <text x="54" y="94" fill="#e8dcc7" font-size="26" letter-spacing="5" font-family="Microsoft YaHei, sans-serif">MEMORY &amp; TIME</text>
  <text x="54" y="810" fill="#fffaf2" font-size="68" font-weight="700" font-family="Microsoft YaHei, sans-serif">似水流年</text>
  <text x="56" y="864" fill="#efe1c8" font-size="28" letter-spacing="3" font-family="Arial, sans-serif">FLEETING YEARS</text>
  <text x="56" y="906" fill="#f7ead9" opacity="0.92" font-size="22" font-family="Microsoft YaHei, sans-serif">泛黄相册翻开时，青春也重新回到每个人眼前。</text>
</svg>
