<svg xmlns="http://www.w3.org/2000/svg" viewBox="0 0 720 960">
  <defs>
    <linearGradient id="bg" x1="0" y1="0" x2="1" y2="1">
      <stop offset="0%" stop-color="#07131d"/>
      <stop offset="55%" stop-color="#102739"/>
      <stop offset="100%" stop-color="#0a1623"/>
    </linearGradient>
    <linearGradient id="fog" x1="0" y1="0" x2="1" y2="0">
      <stop offset="0%" stop-color="#9fd3ff" stop-opacity="0"/>
      <stop offset="50%" stop-color="#9fd3ff" stop-opacity="0.22"/>
      <stop offset="100%" stop-color="#9fd3ff" stop-opacity="0"/>
    </linearGradient>
    <filter id="glow" x="-20%" y="-20%" width="140%" height="140%">
      <feGaussianBlur stdDeviation="8" result="blur"/>
      <feMerge>
        <feMergeNode in="blur"/>
        <feMergeNode in="SourceGraphic"/>
      </feMerge>
    </filter>
  </defs>
  <rect width="720" height="960" fill="url(#bg)"/>
  <circle cx="560" cy="168" r="76" fill="#dcefff" opacity="0.9"/>
  <g opacity="0.25" stroke="#98cfff" stroke-width="2">
    <line x1="120" y1="0" x2="70" y2="960"/>
    <line x1="210" y1="0" x2="160" y2="960"/>
    <line x1="320" y1="0" x2="270" y2="960"/>
    <line x1="430" y1="0" x2="380" y2="960"/>
    <line x1="540" y1="0" x2="490" y2="960"/>
    <line x1="650" y1="0" x2="600" y2="960"/>
  </g>
  <rect x="160" y="270" width="400" height="360" rx="14" fill="#0d1520"/>
  <rect x="200" y="230" width="320" height="90" rx="10" fill="#0d1520"/>
  <rect x="280" y="180" width="160" height="70" rx="8" fill="#0d1520"/>
  <g fill="#f5d779">
    <rect x="215" y="304" width="42" height="72" rx="4"/>
    <rect x="282" y="304" width="42" height="72" rx="4"/>
    <rect x="349" y="304" width="42" height="72" rx="4"/>
    <rect x="416" y="304" width="42" height="72" rx="4"/>
    <rect x="215" y="406" width="42" height="72" rx="4"/>
    <rect x="282" y="406" width="42" height="72" rx="4"/>
    <rect x="416" y="406" width="42" height="72" rx="4"/>
  </g>
  <path d="M338 470c40 0 68 30 68 74 0 52-44 88-78 120-34-32-78-68-78-120 0-44 28-74 68-74 18 0 34 8 44 24 10-16 26-24 44-24z" fill="#dff5ff" opacity="0.92" filter="url(#glow)"/>
  <rect x="0" y="610" width="720" height="64" fill="url(#fog)"/>
  <rect x="0" y="662" width="720" height="78" fill="url(#fog)"/>
  <text x="54" y="94" fill="#8fb9d8" font-size="26" letter-spacing="5" font-family="Microsoft YaHei, sans-serif">HORROR THRILLER</text>
  <text x="54" y="810" fill="#ffffff" font-size="72" font-weight="700" font-family="Microsoft YaHei, sans-serif">幽灵旅馆</text>
  <text x="56" y="864" fill="#9cc6e5" font-size="28" letter-spacing="3" font-family="Arial, sans-serif">GHOST HOTEL</text>
  <text x="56" y="906" fill="#d8e8f5" opacity="0.86" font-size="22" font-family="Microsoft YaHei, sans-serif">暴雨夜停留的旅馆里，住客们等来的不是天亮。</text>
</svg>
