<svg xmlns="http://www.w3.org/2000/svg" width="900" height="1300" viewBox="0 0 900 1300">
  <defs>
    <linearGradient id="bg" x1="0" y1="0" x2="1" y2="1">
      <stop offset="0%" stop-color="#14181f"/>
      <stop offset="55%" stop-color="#243043"/>
      <stop offset="100%" stop-color="#0b0f15"/>
    </linearGradient>
    <linearGradient id="paper" x1="0" y1="0" x2="0" y2="1">
      <stop offset="0%" stop-color="#f8f2e4"/>
      <stop offset="100%" stop-color="#d9d0bc"/>
    </linearGradient>
    <filter id="shadow">
      <feDropShadow dx="0" dy="18" stdDeviation="18" flood-color="#020305" flood-opacity="0.55"/>
    </filter>
  </defs>
  <rect width="900" height="1300" fill="url(#bg)"/>
  <rect x="136" y="228" width="628" height="790" rx="26" fill="#16212f" stroke="#50627f" stroke-width="3"/>
  <rect x="182" y="278" width="536" height="692" rx="12" fill="url(#paper)" filter="url(#shadow)"/>
  <rect x="216" y="332" width="180" height="24" fill="#263447" opacity="0.85"/>
  <rect x="216" y="388" width="430" height="14" fill="#6d7682" opacity="0.45"/>
  <rect x="216" y="428" width="420" height="14" fill="#6d7682" opacity="0.45"/>
  <rect x="216" y="468" width="396" height="14" fill="#6d7682" opacity="0.45"/>
  <circle cx="574" cy="520" r="98" fill="none" stroke="#2b3340" stroke-width="28"/>
  <path d="M632 578 L702 652" stroke="#2b3340" stroke-width="26" stroke-linecap="round"/>
  <g transform="translate(450 698)" opacity="0.85">
    <path d="M0 -142 C52 -142 96 -102 96 -42 C96 12 62 42 24 58 C10 64 0 78 0 92 C0 78 -10 64 -24 58 C-62 42 -96 12 -96 -42 C-96 -102 -52 -142 0 -142 Z" fill="#1e2733"/>
    <path d="M0 -110 C38 -110 68 -80 68 -42 C68 -4 42 22 12 34 C4 38 0 44 0 52 C0 44 -4 38 -12 34 C-42 22 -68 -4 -68 -42 C-68 -80 -38 -110 0 -110 Z" fill="#efe8d6"/>
  </g>
  <rect x="188" y="824" width="524" height="74" fill="#ce584d"/>
  <text x="240" y="874" fill="#fff6f2" font-size="42" font-family="Arial, sans-serif" font-weight="700" letter-spacing="5">MISSING</text>
  <path d="M136 1018 H764" stroke="#45556c" stroke-width="3" stroke-dasharray="10 12"/>
  <text x="90" y="144" fill="#eef3f8" font-size="74" font-family="Georgia, serif" letter-spacing="5">MISSING WITNESS</text>
  <text x="92" y="202" fill="#b8c2cf" font-size="24" font-family="Arial, sans-serif" letter-spacing="5">ONE EMPTY CHAIR CAN COLLAPSE THE WHOLE CASE</text>
  <text x="92" y="1146" fill="#f0cb82" font-size="32" font-family="Arial, sans-serif" letter-spacing="4">COURTROOM THRILLER</text>
  <text x="92" y="1192" fill="#e6ecf3" font-size="22" font-family="Arial, sans-serif">The testimony vanished. The lies did not.</text>
</svg>
