<svg xmlns="http://www.w3.org/2000/svg" width="900" height="1300" viewBox="0 0 900 1300">
  <defs>
    <linearGradient id="bg" x1="0" y1="0" x2="1" y2="1">
      <stop offset="0%" stop-color="#11141b"/>
      <stop offset="58%" stop-color="#272d38"/>
      <stop offset="100%" stop-color="#10151d"/>
    </linearGradient>
    <filter id="glow">
      <feGaussianBlur stdDeviation="14"/>
    </filter>
  </defs>
  <rect width="900" height="1300" fill="url(#bg)"/>
  <rect x="124" y="246" width="652" height="736" rx="20" fill="#1a2028" stroke="#555e6d" stroke-width="3"/>
  <rect x="174" y="304" width="164" height="132" fill="#d4c6a6" transform="rotate(-4 256 370)"/>
  <rect x="390" y="314" width="166" height="144" fill="#ece3d0" transform="rotate(3 473 386)"/>
  <rect x="578" y="292" width="112" height="176" fill="#d6c9af" transform="rotate(-2 634 380)"/>
  <rect x="198" y="520" width="132" height="166" fill="#ece3d0" transform="rotate(2 264 603)"/>
  <rect x="394" y="544" width="180" height="126" fill="#d4c6a6" transform="rotate(-3 484 607)"/>
  <rect x="610" y="548" width="122" height="150" fill="#ece3d0" transform="rotate(4 671 623)"/>
  <path d="M284 416 L476 372 L634 380" fill="none" stroke="#c24744" stroke-width="6"/>
  <path d="M264 604 L482 608 L666 620" fill="none" stroke="#c24744" stroke-width="6"/>
  <path d="M292 416 L264 604" fill="none" stroke="#c24744" stroke-width="6"/>
  <path d="M476 372 L482 608" fill="none" stroke="#c24744" stroke-width="6"/>
  <circle cx="614" cy="808" r="98" fill="none" stroke="#f2e8d2" stroke-width="22"/>
  <circle cx="614" cy="808" r="70" fill="none" stroke="#f2e8d2" stroke-width="6"/>
  <path d="M676 870 L746 948" stroke="#f2e8d2" stroke-width="28" stroke-linecap="round"/>
  <circle cx="614" cy="808" r="118" fill="#f2e8d2" opacity="0.1" filter="url(#glow)"/>
  <text x="90" y="144" fill="#f3f6fb" font-size="74" font-family="Georgia, serif" letter-spacing="5">ONLY ONE TRUTH</text>
  <text x="92" y="200" fill="#bec9d6" font-size="24" font-family="Arial, sans-serif" letter-spacing="4">EVERY CLUE POINTS SOMEWHERE. ONLY ONE WAY HOLDS.</text>
  <text x="92" y="1146" fill="#f1ca81" font-size="32" font-family="Arial, sans-serif" letter-spacing="4">HARDCORE DEDUCTION</text>
  <text x="92" y="1192" fill="#e7edf3" font-size="22" font-family="Arial, sans-serif">Cross the testimonies. Untie the red lines. Pick the only ending that fits.</text>
</svg>
